<?xml version="1.0" encoding="UTF-8"?>
<svg width="674px" height="610px" viewBox="0 0 674 610" version="1.1" xmlns="http://www.w3.org/2000/svg" xmlns:xlink="http://www.w3.org/1999/xlink">
    <!-- Generator: Sketch 53.2 (72643) - https://sketchapp.com -->
    <title>BASE TEXTO</title>
    <desc>Created with Sketch.</desc>
    <defs>
        <path d="M123.882,0.935 C71.328,2.312 3.389,36.063 0.484,95.583 L0.484,95.583 C-0.158,108.755 3.529,121.669 10.657,132.732 L10.657,132.732 C18.434,144.803 31.142,154.019 45.378,155.899 L45.378,155.899 C68.173,158.909 87.914,144.281 107.9,135.934 L107.9,135.934 C142.045,121.676 177.999,108.533 207.849,86.143 L207.849,86.143 C216.077,79.972 224.169,72.412 226.549,62.406 L226.549,62.406 C227.462,58.565 227.548,54.951 226.961,51.546 L226.961,51.546 C223.394,30.848 204.775,20.621 187.104,13.089 L187.104,13.089 C168.391,5.115 148.066,0.885 127.718,0.885 L127.718,0.885 C126.439,0.885 125.161,0.901 123.882,0.935" id="path-1"></path>
        <linearGradient x1="114.268881%" y1="87.9727695%" x2="-43.7046829%" y2="-1.58134361%" id="linearGradient-3">
            <stop stop-color="#4AD295" offset="0%"></stop>
            <stop stop-color="#00AF80" offset="100%"></stop>
        </linearGradient>
        <path d="M38.31,0.457 C28.441,0.772 18.584,1.346 8.729,1.925 L8.729,1.925 C3.28,2.245 1.186,6.792 0.211,12.498 L0.211,12.498 C0.396,18.248 -1.266,36.55 6.945,61.716 L6.945,61.716 C12.729,79.441 22.395,95.614 30.818,112.155 L30.818,112.155 C48.837,147.543 64.648,184.02 78.383,221.275 L78.383,221.275 C78.447,221.446 78.51,221.618 78.573,221.789 L78.573,221.789 C89.484,251.425 89.305,283.982 78.481,313.65 L78.481,313.65 C76.553,318.935 74.793,324.285 73.232,329.712 L73.232,329.712 C68.206,347.192 65.282,365.514 65.738,383.733 L65.738,383.733 C66.206,402.382 70.19,420.77 74.984,438.73 L74.984,438.73 C80.725,460.247 80.327,491.686 106.778,498.545 L106.778,498.545 C118.478,501.58 130.897,499.091 142.416,495.43 L142.416,495.43 C209.035,474.258 255.453,414.166 280.04,351.081 L280.04,351.081 C300.317,299.056 306.044,241.317 290.43,187.242 L290.43,187.242 C269.637,115.239 216.188,51.731 148.185,20.008 L148.185,20.008 C132.184,12.545 115.355,6.892 97.952,3.819 L97.952,3.819 C82.846,1.151 67.544,0.225 52.234,0.225 L52.234,0.225 C47.591,0.225 42.949,0.31 38.31,0.457" id="path-4"></path>
        <linearGradient x1="0.87873056%" y1="49.9999802%" x2="100.00011%" y2="49.9999802%" id="linearGradient-6">
            <stop stop-color="#4AD295" offset="0%"></stop>
            <stop stop-color="#00AF80" offset="100%"></stop>
        </linearGradient>
        <path d="M23.514,22.302 C14.625,35.17 9.108,51.265 5.875,66.484 L5.875,66.484 C-14.285,161.378 18.972,268.083 82.176,339.348 L82.176,339.348 C147.029,412.469 242.715,460.942 343.281,447.872 L343.281,447.872 C362.661,445.353 379.579,440.625 396.002,429.807 L396.002,429.807 C402.332,425.635 408.35,420.655 412.19,414.118 L412.19,414.118 C414.677,409.886 416.003,406.114 416.39,402.745 L416.39,402.745 C418.896,380.941 381.982,376.06 364.697,373.008 L364.697,373.008 C345.501,369.619 325.886,367.19 307.897,359.226 L307.897,359.226 C289.066,350.889 270.058,342.933 251.838,333.021 L251.838,333.021 C213.792,312.321 178.243,286.352 149.193,254.066 L149.193,254.066 C112.34,213.107 93.3,150.965 98.517,95.407 L98.517,95.407 C100.412,75.226 107.941,54.46 104.722,34.048 L104.722,34.048 C102.138,17.658 88.248,5.286 72.358,1.702 L72.358,1.702 C68.908,0.924 65.512,0.55 62.2,0.549 L62.2,0.549 C46.596,0.549 32.808,8.848 23.514,22.302" id="path-7"></path>
        <linearGradient x1="-7.54322617%" y1="35.4461985%" x2="97.0580376%" y2="65.8612653%" id="linearGradient-9">
            <stop stop-color="#4AD295" offset="0%"></stop>
            <stop stop-color="#00AF80" offset="100%"></stop>
        </linearGradient>
        <path d="M0.846,2.553 L0.846,2.96 C9.926,3.258 21.459,4.428 29.822,5.287 L29.822,5.287 C65.221,8.925 100.236,16.287 133.568,28.882 L133.568,28.882 C158.593,38.338 182.217,51.87 202.311,69.608 L202.311,69.608 C249.868,111.589 272.185,175.669 272.143,238.013 L272.143,238.013 C272.12,274.614 268.856,310.905 260.44,346.585 L260.44,346.585 C256.233,364.42 251.906,383.786 242.89,399.76 L242.89,399.76 C232.915,417.43 222.785,434.686 211.498,451.581 L211.498,451.581 C270.183,389.038 291.781,300.489 287.572,216.34 L287.572,216.34 C286.272,190.355 282.759,165.468 275.357,142.045 L275.357,142.045 C267.164,116.116 254.206,91.979 234.213,70.131 L234.213,70.131 C186.754,18.268 114.603,0.157 45.281,0.156 L45.281,0.156 C30.24,0.156 15.341,1.008 0.846,2.553" id="path-10"></path>
        <linearGradient x1="-1.81849422%" y1="49.9999864%" x2="100.00011%" y2="49.9999864%" id="linearGradient-12">
            <stop stop-color="#F5F9FB" offset="0%"></stop>
            <stop stop-color="#E0E9EC" offset="100%"></stop>
        </linearGradient>
        <path d="M69.7,52.734 C37.384,83.307 14.65,124.013 5.8,167.627 L5.8,167.627 C-1.433,203.271 -0.62,241.317 5.237,277.096 L5.237,277.096 C13.039,324.758 32.992,370.191 63.667,407.574 L63.667,407.574 C121.497,478.054 215.511,514.16 305.811,511.36 L305.811,511.36 C297.722,509.971 289.702,508.247 281.755,506.14 L281.755,506.14 C262.468,501.027 242.139,499.666 222.733,492.657 L222.733,492.657 C215.598,490.079 208.583,487.171 201.717,483.944 L201.717,483.944 C189.731,478.31 178.203,471.706 167.29,464.197 L167.29,464.197 C131.637,439.669 101.152,414.008 76.967,378.476 L76.967,378.476 C64.091,359.56 49.612,330.587 41.944,308.975 L41.944,308.975 C26.991,266.829 23.484,212.474 34.057,169.387 L34.057,169.387 C51.924,96.575 99.819,42.992 161.703,0.201 L161.703,0.201 C127.45,11.511 95.629,28.205 69.7,52.734" id="path-13"></path>
        <linearGradient x1="72.5600655%" y1="36.1908511%" x2="19.0848297%" y2="89.151774%" id="linearGradient-15">
            <stop stop-color="#F5F9FB" offset="0%"></stop>
            <stop stop-color="#E0E9EC" offset="100%"></stop>
        </linearGradient>
    </defs>
    <g id="Page-1" stroke="none" stroke-width="1" fill="none" fill-rule="evenodd">
        <g id="Flaticon-ES" transform="translate(-503.000000, -208.000000)">
            <g id="BASE-TEXTO" transform="translate(503.000000, 207.000000)">
                <g id="Group-3" transform="translate(82.000000, 0.116000)">
                    <mask id="mask-2" fill="white">
                        <use xlink:href="#path-1"></use>
                    </mask>
                    <g id="Clip-2"></g>
                    <path d="M123.882,0.935 C71.328,2.312 3.389,36.063 0.484,95.583 L0.484,95.583 C-0.158,108.755 3.529,121.669 10.657,132.732 L10.657,132.732 C18.434,144.803 31.142,154.019 45.378,155.899 L45.378,155.899 C68.173,158.909 87.914,144.281 107.9,135.934 L107.9,135.934 C142.045,121.676 177.999,108.533 207.849,86.143 L207.849,86.143 C216.077,79.972 224.169,72.412 226.549,62.406 L226.549,62.406 C227.462,58.565 227.548,54.951 226.961,51.546 L226.961,51.546 C223.394,30.848 204.775,20.621 187.104,13.089 L187.104,13.089 C168.391,5.115 148.066,0.885 127.718,0.885 L127.718,0.885 C126.439,0.885 125.161,0.901 123.882,0.935" id="Fill-1" fill="url(#linearGradient-3)" mask="url(#mask-2)"></path>
                </g>
                <path d="M121.8382,53.5136 C134.1732,37.0746 151.2332,25.6766 169.7852,17.2306 C189.0992,8.4386 210.8682,1.5166 232.3712,2.7506 C223.6142,1.4076 214.7422,0.8186 205.8822,1.0506 C153.3282,2.4276 85.3892,36.1786 82.4842,95.6996 C81.8412,108.8706 85.5292,121.7846 92.6572,132.8476 C96.9022,139.4376 102.6252,145.1646 109.2562,149.3236 C100.9042,117.1826 101.1922,81.0276 121.8382,53.5136" id="Fill-4" fill="#8DF690" opacity="0.12"></path>
                <g id="Group-8" transform="translate(374.000000, 33.116000)">
                    <mask id="mask-5" fill="white">
                        <use xlink:href="#path-4"></use>
                    </mask>
                    <g id="Clip-7"></g>
                    <path d="M38.31,0.457 C28.441,0.772 18.584,1.346 8.729,1.925 L8.729,1.925 C3.28,2.245 1.186,6.792 0.211,12.498 L0.211,12.498 C0.396,18.248 -1.266,36.55 6.945,61.716 L6.945,61.716 C12.729,79.441 22.395,95.614 30.818,112.155 L30.818,112.155 C48.837,147.543 64.648,184.02 78.383,221.275 L78.383,221.275 C78.447,221.446 78.51,221.618 78.573,221.789 L78.573,221.789 C89.484,251.425 89.305,283.982 78.481,313.65 L78.481,313.65 C76.553,318.935 74.793,324.285 73.232,329.712 L73.232,329.712 C68.206,347.192 65.282,365.514 65.738,383.733 L65.738,383.733 C66.206,402.382 70.19,420.77 74.984,438.73 L74.984,438.73 C80.725,460.247 80.327,491.686 106.778,498.545 L106.778,498.545 C118.478,501.58 130.897,499.091 142.416,495.43 L142.416,495.43 C209.035,474.258 255.453,414.166 280.04,351.081 L280.04,351.081 C300.317,299.056 306.044,241.317 290.43,187.242 L290.43,187.242 C269.637,115.239 216.188,51.731 148.185,20.008 L148.185,20.008 C132.184,12.545 115.355,6.892 97.952,3.819 L97.952,3.819 C82.846,1.151 67.544,0.225 52.234,0.225 L52.234,0.225 C47.591,0.225 42.949,0.31 38.31,0.457" id="Fill-6" fill="url(#linearGradient-6)" mask="url(#mask-5)"></path>
                </g>
                <path d="M669.4734,241.7772 C669.0454,277.4822 666.5884,313.9322 653.2204,347.2302 C640.3694,379.2372 618.5244,406.9292 591.5624,428.2922 C563.8914,450.2182 532.2374,466.0672 499.8584,479.8022 C484.8584,486.1652 469.6614,491.9322 454.3134,497.2092 C457.8914,512.7352 463.8054,527.2602 480.7784,531.6612 C492.4784,534.6952 504.8974,532.2062 516.4164,528.5462 C583.0354,507.3732 629.4524,447.2812 654.0404,384.1962 C671.6614,338.9852 678.2854,289.4632 669.4734,241.7772" id="Fill-9" fill="#ABFFAD" opacity="0.12"></path>
                <g id="Group-13" transform="translate(0.000000, 160.116000)">
                    <mask id="mask-8" fill="white">
                        <use xlink:href="#path-7"></use>
                    </mask>
                    <g id="Clip-12"></g>
                    <path d="M23.514,22.302 C14.625,35.17 9.108,51.265 5.875,66.484 L5.875,66.484 C-14.285,161.378 18.972,268.083 82.176,339.348 L82.176,339.348 C147.029,412.469 242.715,460.942 343.281,447.872 L343.281,447.872 C362.661,445.353 379.579,440.625 396.002,429.807 L396.002,429.807 C402.332,425.635 408.35,420.655 412.19,414.118 L412.19,414.118 C414.677,409.886 416.003,406.114 416.39,402.745 L416.39,402.745 C418.896,380.941 381.982,376.06 364.697,373.008 L364.697,373.008 C345.501,369.619 325.886,367.19 307.897,359.226 L307.897,359.226 C289.066,350.889 270.058,342.933 251.838,333.021 L251.838,333.021 C213.792,312.321 178.243,286.352 149.193,254.066 L149.193,254.066 C112.34,213.107 93.3,150.965 98.517,95.407 L98.517,95.407 C100.412,75.226 107.941,54.46 104.722,34.048 L104.722,34.048 C102.138,17.658 88.248,5.286 72.358,1.702 L72.358,1.702 C68.908,0.924 65.512,0.55 62.2,0.549 L62.2,0.549 C46.596,0.549 32.808,8.848 23.514,22.302" id="Fill-11" fill="url(#linearGradient-9)" mask="url(#mask-8)"></path>
                </g>
                <path d="M96.2225,499.6137 C73.6455,466.7787 56.7845,430.8267 46.5825,392.2657 C36.3485,353.5827 31.5195,312.3577 34.5685,272.3837 C36.1175,252.0757 39.7485,231.8517 46.5065,212.6057 C49.9385,202.8317 53.9245,192.9357 58.9895,183.8807 C62.8715,176.9397 69.5555,170.6887 71.6525,162.9757 C71.7685,162.5487 71.9045,162.1437 72.0555,161.7557 C52.4715,157.4687 34.7225,166.1917 23.5145,182.4177 C14.6245,195.2857 9.1075,211.3807 5.8745,226.5997 C-14.2845,321.4947 18.9715,428.1987 82.1765,499.4637 C98.3825,517.7357 116.5145,534.4677 136.1655,549.0867 C121.5265,533.7547 108.2445,517.0987 96.2225,499.6137" id="Fill-14" fill="#8DF690" opacity="0.12"></path>
                <path d="M614.3572,164.161 C606.1642,138.231 593.2062,114.096 573.2122,92.247 C518.0602,31.976 439.3372,21.696 361.7452,23.753 C278.9092,25.949 181.5182,39.423 118.7002,98.85 C86.3832,129.424 63.6502,170.13 54.8002,213.744 C47.5672,249.387 48.3802,287.433 54.2372,323.212 C62.0392,370.874 81.9922,416.307 112.6662,453.69 C174.9622,529.611 279.2452,565.657 375.6422,556.137 C386.8252,555.034 397.9492,553.316 408.9402,550.976 C458.2882,540.47 505.4172,517.544 541.7622,482.55 C607.0452,419.694 630.9842,326.658 626.5722,238.456 C625.2722,212.471 621.7582,187.584 614.3572,164.161" id="Fill-16" fill="#F8FAFB"></path>
                <g id="Group-20" transform="translate(339.000000, 22.116000)">
                    <mask id="mask-11" fill="white">
                        <use xlink:href="#path-10"></use>
                    </mask>
                    <g id="Clip-19"></g>
                    <path d="M0.846,2.553 L0.846,2.96 C9.926,3.258 21.459,4.428 29.822,5.287 L29.822,5.287 C65.221,8.925 100.236,16.287 133.568,28.882 L133.568,28.882 C158.593,38.338 182.217,51.87 202.311,69.608 L202.311,69.608 C249.868,111.589 272.185,175.669 272.143,238.013 L272.143,238.013 C272.12,274.614 268.856,310.905 260.44,346.585 L260.44,346.585 C256.233,364.42 251.906,383.786 242.89,399.76 L242.89,399.76 C232.915,417.43 222.785,434.686 211.498,451.581 L211.498,451.581 C270.183,389.038 291.781,300.489 287.572,216.34 L287.572,216.34 C286.272,190.355 282.759,165.468 275.357,142.045 L275.357,142.045 C267.164,116.116 254.206,91.979 234.213,70.131 L234.213,70.131 C186.754,18.268 114.603,0.157 45.281,0.156 L45.281,0.156 C30.24,0.156 15.341,1.008 0.846,2.553" id="Fill-18" fill="url(#linearGradient-12)" mask="url(#mask-11)"></path>
                </g>
                <g id="Group-23" transform="translate(49.000000, 46.116000)">
                    <mask id="mask-14" fill="white">
                        <use xlink:href="#path-13"></use>
                    </mask>
                    <g id="Clip-22"></g>
                    <path d="M69.7,52.734 C37.384,83.307 14.65,124.013 5.8,167.627 L5.8,167.627 C-1.433,203.271 -0.62,241.317 5.237,277.096 L5.237,277.096 C13.039,324.758 32.992,370.191 63.667,407.574 L63.667,407.574 C121.497,478.054 215.511,514.16 305.811,511.36 L305.811,511.36 C297.722,509.971 289.702,508.247 281.755,506.14 L281.755,506.14 C262.468,501.027 242.139,499.666 222.733,492.657 L222.733,492.657 C215.598,490.079 208.583,487.171 201.717,483.944 L201.717,483.944 C189.731,478.31 178.203,471.706 167.29,464.197 L167.29,464.197 C131.637,439.669 101.152,414.008 76.967,378.476 L76.967,378.476 C64.091,359.56 49.612,330.587 41.944,308.975 L41.944,308.975 C26.991,266.829 23.484,212.474 34.057,169.387 L34.057,169.387 C51.924,96.575 99.819,42.992 161.703,0.201 L161.703,0.201 C127.45,11.511 95.629,28.205 69.7,52.734" id="Fill-21" fill="url(#linearGradient-15)" mask="url(#mask-14)"></path>
                </g>
            </g>
        </g>
    </g>
</svg>